<svg xmlns="http://www.w3.org/2000/svg" viewBox="0 0 500 500"><g id="freepik--Plants--inject-77"><path d="M181,158.26c-58.78,92.47-91.46,169.79-102.4,278.82l2.6-.62,5.19-.27s2.85-68.87,26.87-128C139.4,243.87,181,158.26,181,158.26Z" style="fill:#009DB5"></path><path d="M116.71,292.15s49.45,4.29,67.6.75,58.07-19.59,58.07-19.59S199.74,256.23,176.27,261s-58.08,27.2-58.08,27.2Z" style="fill:#009DB5"></path><path d="M221.41,273.38a.82.82,0,0,1-.26,0l-.79.06c-.7,0-1.72.11-3,.16-2.64.11-6.46.22-11.18.31s-10.35.17-16.58.39c-3.12.11-6.39.26-9.77.57-1.69.15-3.39.37-5.11.67s-3.4.88-5.14,1.34c-7,1.83-13.71,3.23-19.8,4.59s-11.57,2.65-16.14,3.84-8.23,2.25-10.77,3l-2.92.86-.76.21a.88.88,0,0,1-.26.06s.08,0,.25-.11l.74-.26,2.89-1c2.52-.79,6.17-1.92,10.74-3.14s10-2.57,16.12-3.94,12.81-2.81,19.77-4.64c1.74-.45,3.44-1,5.18-1.33s3.47-.53,5.17-.68c3.39-.3,6.67-.45,9.79-.54,6.25-.19,11.87-.22,16.59-.27l11.18-.16,3-.05h.79A.8.8,0,0,1,221.41,273.38Z" style="fill:#263238"></path><path d="M99.57,345.88s49.64-.24,67.4-5.42,56-24.8,56-24.8-44-13.13-67-6.27-55.35,32.38-55.35,32.38Z" style="fill:#009DB5"></path><path d="M202.13,317.64l-.26.06-.78.13c-.69.1-1.7.26-3,.43-2.62.36-6.42.81-11.11,1.33s-10.29,1.11-16.48,1.9c-3.09.39-6.34.84-9.67,1.46-1.66.3-3.35.68-5,1.14s-3.32,1.18-5,1.79c-6.78,2.47-13.35,4.48-19.3,6.39s-11.27,3.69-15.71,5.29-8,3-10.46,3.95l-2.82,1.13-.74.28-.26.08a.84.84,0,0,1,.24-.13l.72-.33,2.78-1.22c2.44-1,6-2.47,10.41-4.11s9.75-3.48,15.7-5.4,12.5-4,19.26-6.42c1.69-.61,3.33-1.28,5-1.8s3.4-.84,5.08-1.14c3.35-.61,6.6-1.06,9.7-1.44,6.2-.76,11.8-1.3,16.5-1.78l11.12-1.17,3-.34.79-.07A.79.79,0,0,1,202.13,317.64Z" style="fill:#263238"></path><path d="M86.58,399.88s49.51-3.61,66.87-10,54.22-28.56,54.22-28.56-44.81-10.1-67.23-1.7-53,36.08-53,36.08Z" style="fill:#009DB5"></path><path d="M187,364.72a.77.77,0,0,1-.26.08L186,365c-.68.15-1.68.38-3,.64-2.59.54-6.35,1.25-11,2.09s-10.19,1.81-16.31,3c-3.06.6-6.27,1.28-9.55,2.12q-2.46.62-4.94,1.47c-1.61.62-3.22,1.41-4.87,2.14-6.6,2.91-13,5.37-18.82,7.68s-11,4.45-15.32,6.35S94.41,394,92,395.13l-2.74,1.32-.72.33a.84.84,0,0,1-.25.09l.23-.14.69-.38,2.7-1.4c2.36-1.18,5.79-2.88,10.1-4.81s9.5-4.13,15.3-6.46,12.2-4.8,18.78-7.71c1.65-.73,3.23-1.51,4.9-2.14s3.34-1.07,5-1.49c3.3-.84,6.52-1.5,9.59-2.09,6.13-1.18,11.68-2.1,16.33-2.9l11-1.93,3-.54.78-.13Z" style="fill:#263238"></path><path d="M84.94,401.39s-36.08-25.08-45.58-38.3c-7.74-10.77-15-37.86-15-37.86s29.18,10.41,42.14,27,19.73,45.6,19.73,45.6Z" style="fill:#009DB5"></path><path d="M32.58,335a5.21,5.21,0,0,1,.65.54L35,337.1c1.57,1.46,3.8,3.5,6.52,6s6,5.58,9.59,9a135,135,0,0,1,11,11.74,159.18,159.18,0,0,1,9.57,13c2.75,4.12,5.11,7.9,7.07,11.09s3.52,5.79,4.59,7.59l1.22,2.08a4.72,4.72,0,0,1,.39.74,5.89,5.89,0,0,1-.48-.69l-1.3-2-4.73-7.5c-2-3.16-4.39-6.92-7.16-11s-5.94-8.52-9.57-12.92a138.79,138.79,0,0,0-11-11.72C47.26,349,44,346,41.3,343.37l-6.41-6.12-1.73-1.68A4.71,4.71,0,0,1,32.58,335Z" style="fill:#263238"></path><path d="M98.11,349.78s-38.7-31.09-49.37-46.2-28.42-54.29-28.42-54.29,42.62,17.13,56.31,36.77,23.16,59.81,23.16,59.81Z" style="fill:#009DB5"></path><path d="M35.42,263.83s.08.05.21.17l.57.55,2.16,2.15,8,7.84c3.37,3.3,7.42,7.21,11.8,11.67,2.19,2.22,4.46,4.59,6.7,7.16q1.69,1.92,3.27,4.05c1,1.48,1.87,3,2.82,4.55,3.76,6.14,7.64,11.8,11.08,17s6.48,9.95,8.92,14,4.31,7.38,5.59,9.7l1.42,2.69c.15.28.27.52.36.7a2.15,2.15,0,0,1,.11.25,1.23,1.23,0,0,1-.16-.22l-.4-.68-1.51-2.64c-1.33-2.28-3.23-5.6-5.72-9.6s-5.54-8.74-9-13.93-7.35-10.86-11.13-17c-.94-1.53-1.82-3.1-2.8-4.52s-2.11-2.74-3.22-4c-2.23-2.55-4.49-4.93-6.66-7.16-4.36-4.47-8.38-8.4-11.72-11.74s-6-6.05-7.86-8c-.92-.95-1.61-1.7-2.09-2.21l-.53-.59A1.07,1.07,0,0,1,35.42,263.83Z" style="fill:#263238"></path><path d="M118.32,291.77S104,244.23,94,228.66s-39.65-46.72-39.65-46.72-.13,45.94,12.94,66,46.73,43.93,46.73,43.93Z" style="fill:#009DB5"></path><path d="M62.19,201.4s.06.07.14.23l.35.7L64,205.06c1.14,2.37,2.83,5.78,5,9.94s4.86,9.08,8,14.44c1.56,2.69,3.24,5.48,5,8.34s3.75,5.78,5.56,8.89c3.62,6.2,6.82,12.25,9.89,17.65s6,10.18,8.59,14.09,4.87,7,6.44,9.08c.79,1,1.41,1.81,1.85,2.39l.48.63c.1.14.15.22.14.23a2,2,0,0,1-.19-.2l-.51-.6-1.93-2.33c-1.62-2.07-4-5.08-6.59-9s-5.6-8.66-8.69-14.06-6.31-11.44-9.93-17.63c-1.81-3.09-3.74-6-5.54-8.87s-3.47-5.68-5-8.37c-3.11-5.39-5.77-10.33-7.91-14.52s-3.78-7.62-4.87-10c-.55-1.19-1-2.14-1.22-2.77l-.31-.73Z" style="fill:#263238"></path><path d="M142.58,233.25s-5.56-46-12.48-63.12-30.22-53.31-30.22-53.31-8.7,45.11.38,67.25S138,236,138,236Z" style="fill:#009DB5"></path><path d="M103.91,137.4s0,.08.12.24.16.44.28.74c.25.68.59,1.63,1,2.84l3.79,10.45c1.59,4.43,3.48,9.69,5.57,15.53s4.32,12.31,6.46,19.14c4.44,13.62,9.17,25.71,12.54,34.48,1.67,4.35,3,7.89,4,10.38l1.07,2.83.26.74a1.87,1.87,0,0,1,.08.26,1.31,1.31,0,0,1-.13-.24l-.31-.73c-.28-.67-.67-1.61-1.15-2.79L133.37,221c-3.46-8.73-8.25-20.81-12.69-34.45-2.15-6.84-4.36-13.28-6.42-19.14s-3.91-11.12-5.47-15.57-2.76-8-3.64-10.51c-.4-1.21-.71-2.18-.94-2.87l-.24-.75A1.71,1.71,0,0,1,103.91,137.4Z" style="fill:#263238"></path><path d="M140.2,237.25s44.16,6.17,60.61,3.85,53-14.84,53-14.84-37.44-17.33-58.71-14.19-53.38,21.67-53.38,21.67Z" style="fill:#009DB5"></path><path d="M235,225.33l-.24,0h-.71c-.62,0-1.55,0-2.73,0-2.38,0-5.81-.1-10-.24s-9.29-.33-14.89-.43c-2.8-.05-5.74-.06-8.78.06-1.52,0-3.06.17-4.61.36s-3.1.63-4.68,1c-6.35,1.31-12.45,2.25-18,3.19s-10.49,1.82-14.65,2.67-7.49,1.63-9.8,2.16l-2.66.63-.69.16-.24,0s.07,0,.22-.09l.68-.2,2.64-.73c2.3-.59,5.63-1.44,9.78-2.32s9.11-1.84,14.64-2.79,11.62-1.91,17.95-3.22c1.59-.33,3.13-.71,4.72-1s3.13-.31,4.66-.36c3.06-.11,6-.09,8.81,0,5.61.13,10.66.37,14.9.54l10,.4,2.73.1.71,0Z" style="fill:#263238"></path><path d="M167.83,183.94s41.24,4.72,56.49,2.17,49-15.05,49-15.05-35.26-15.25-55-11.83-49.17,21.41-49.17,21.41Z" style="fill:#009DB5"></path><path d="M255.78,170.64a5,5,0,0,1-.88.06c-.59,0-1.44.06-2.55.07-2.21,0-5.4,0-9.35,0s-8.65-.09-13.87,0c-2.61,0-5.35.07-8.17.25q-2.13.13-4.29.45c-1.41.26-2.86.65-4.33,1-5.88,1.37-11.53,2.39-16.65,3.39s-9.73,1.94-13.58,2.82-6.94,1.69-9.07,2.24l-2.46.64a7.1,7.1,0,0,1-.87.2,4.88,4.88,0,0,1,.84-.3l2.43-.74c2.13-.61,5.2-1.47,9.05-2.39s8.44-1.94,13.56-2.94,10.77-2.06,16.63-3.43c1.47-.34,2.89-.73,4.37-1s2.91-.36,4.33-.45c2.85-.17,5.59-.22,8.21-.22,5.22,0,9.92.09,13.87.15l9.35.15,2.54,0A5.48,5.48,0,0,1,255.78,170.64Z" style="fill:#263238"></path><path d="M166.62,185.66s0-39.26-4-54.15S144,83.8,144,83.8s-9.55,34.81-4.35,54.06,24.31,49.53,24.31,49.53Z" style="fill:#009DB5"></path><path d="M145.52,101a5.83,5.83,0,0,1,.16.87c.08.57.21,1.41.35,2.5.29,2.17.65,5.33,1.07,9.23s.89,8.54,1.52,13.68c.31,2.57.66,5.27,1.15,8,.24,1.38.52,2.78.89,4.18s.91,2.78,1.36,4.2c1.85,5.7,3.36,11.2,4.8,16.18s2.78,9.45,4,13.18,2.23,6.73,2.94,8.8l.84,2.39a4.86,4.86,0,0,1,.25.84,5.67,5.67,0,0,1-.35-.81l-.93-2.35c-.77-2-1.87-5-3.1-8.75S157.82,165,156.36,160s-3-10.46-4.83-16.15c-.46-1.43-1-2.79-1.37-4.22s-.66-2.84-.9-4.23c-.48-2.79-.82-5.5-1.12-8.07-.6-5.16-1-9.81-1.4-13.71l-.91-9.24c-.11-1.05-.19-1.89-.25-2.51A4.85,4.85,0,0,1,145.52,101Z" style="fill:#263238"></path><path d="M174,173.76s29.72-27.56,37.42-41,19.4-47.44,19.4-47.44-34.14,17.62-44,35S172.9,173.3,172.9,173.3Z" style="fill:#009DB5"></path><path d="M219.35,98.65a5.88,5.88,0,0,1-.51.72c-.36.47-.87,1.15-1.56,2-1.37,1.74-3.39,4.22-5.91,7.26s-5.55,6.63-8.83,10.7c-1.63,2-3.33,4.18-5,6.48-.83,1.15-1.62,2.35-2.36,3.6s-1.31,2.62-2,4c-2.66,5.42-5.46,10.43-7.93,15s-4.66,8.76-6.42,12.29-3.09,6.44-4,8.44c-.44,1-.8,1.74-1.06,2.31a4.17,4.17,0,0,1-.4.79,5.48,5.48,0,0,1,.31-.83c.23-.58.56-1.36,1-2.35.88-2,2.16-5,3.88-8.52s3.86-7.75,6.33-12.36,5.23-9.63,7.88-15c.67-1.35,1.27-2.7,2-4s1.56-2.48,2.4-3.64c1.66-2.31,3.37-4.46,5-6.49,3.3-4,6.36-7.62,8.92-10.63l6-7.14,1.63-2A5.62,5.62,0,0,1,219.35,98.65Z" style="fill:#263238"></path><path d="M118.19,288.16l-1.48,4s17.36,1.5,35.28,2L176.27,261C152.81,265.68,118.19,288.16,118.19,288.16Z" style="opacity:0.1"></path><path d="M100.69,341.77l-1.12,4.11s37.55,1.28,44.28-1.9L156,309.39C133.11,316.24,100.69,341.77,100.69,341.77Z" style="opacity:0.1"></path><path d="M87.41,395.71l-.83,4.17s37-.34,54.35-6.72l-.49-33.53C118,368,87.41,395.71,87.41,395.71Z" style="opacity:0.1"></path><path d="M141.72,233.74l-1.52,3.51s18.62,2.21,31.72,3.46l23.18-28.64C173.83,215.21,141.72,233.74,141.72,233.74Z" style="opacity:0.1"></path><path d="M169.16,180.64l-1.33,3.3s10.78,1.24,23.36,2.1l27.14-26.81C198.61,162.64,169.16,180.64,169.16,180.64Z" style="opacity:0.1"></path><path d="M185.53,211.73c-2.75-1.88-6.44-1.51-9.61-.51-5.41,1.73-14.81,7.84-13.07,10.66,3.25,2.15,6.59,2,10.43,1.37a46.42,46.42,0,0,0,11-3.89,6.12,6.12,0,0,0,3.09-2.28C188.38,215.26,187.24,212.89,185.53,211.73Z" style="fill:#e0e0e0"></path><path d="M185.53,211.73s.05,0,.14.07a2.15,2.15,0,0,1,.38.27,5.45,5.45,0,0,1,1.17,1.33,4.27,4.27,0,0,1,.63,2.75,3.27,3.27,0,0,1-.77,1.63,5.53,5.53,0,0,1-1.59,1.21,67.91,67.91,0,0,1-8.9,3.71,29.54,29.54,0,0,1-5.6,1.13,13.18,13.18,0,0,1-6.12-.62,11.38,11.38,0,0,1-2.17-1.12l0,0,0-.05a1.91,1.91,0,0,1-.12-1.61,4.74,4.74,0,0,1,.72-1.33,12.72,12.72,0,0,1,2-2,31.71,31.71,0,0,1,4.33-3.05,27.81,27.81,0,0,1,8.18-3.42,11.4,11.4,0,0,1,5.91.15,5.19,5.19,0,0,1,1.91,1,10,10,0,0,0-2-.83,11.57,11.57,0,0,0-5.78,0,28,28,0,0,0-8,3.47,32.22,32.22,0,0,0-4.24,3,12.61,12.61,0,0,0-1.89,2c-.52.71-1,1.65-.57,2.36l-.08-.08a10.33,10.33,0,0,0,2.07,1.06,12.72,12.72,0,0,0,5.88.6,29.39,29.39,0,0,0,5.51-1.08,72.47,72.47,0,0,0,8.86-3.57,5.2,5.2,0,0,0,1.52-1.11,3,3,0,0,0,.73-1.46,4,4,0,0,0-.52-2.59A6.92,6.92,0,0,0,185.53,211.73Z" style="fill:#263238"></path><path d="M184.18,214.14a4.8,4.8,0,0,0-2.53-1.93,4.56,4.56,0,0,0-3.09.24h0c-.32,1,2.45,1,3.33,1.88a4.47,4.47,0,0,0,1.6,1.25.87.87,0,0,0,.74-.06.73.73,0,0,0,.26-.68A1.57,1.57,0,0,0,184.18,214.14Z" style="fill:#fff"></path><path d="M160.75,269.7a7.66,7.66,0,0,0-8.55,4.94,1.74,1.74,0,0,0,1,2.2c2.32.92,6.55-.26,9.07-1.32a3.71,3.71,0,0,0,1.59-1.07,2.66,2.66,0,0,0-.16-3.16A4.67,4.67,0,0,0,160.75,269.7Z" style="fill:#e0e0e0"></path><path d="M160.75,269.7a3.16,3.16,0,0,1,1.23.24,4.52,4.52,0,0,1,1.3.72,3.25,3.25,0,0,1,1.1,1.66,2.61,2.61,0,0,1-.46,2.38,6.1,6.1,0,0,1-2.4,1.37,19.19,19.19,0,0,1-6,1.35,6.61,6.61,0,0,1-1.66-.13,4.86,4.86,0,0,1-.8-.24,2,2,0,0,1-.71-.53,2,2,0,0,1-.45-1.61,5.63,5.63,0,0,1,.58-1.41,7.65,7.65,0,0,1,3.72-3.4,7.4,7.4,0,0,1,3.36-.61,3.35,3.35,0,0,1,1.22.21c0,.05-.44,0-1.23,0a8.19,8.19,0,0,0-3.2.74,7.6,7.6,0,0,0-3.45,3.3,5.38,5.38,0,0,0-.51,1.26,1.47,1.47,0,0,0,.35,1.2,2,2,0,0,0,1.23.59,6,6,0,0,0,1.54.12,19.25,19.25,0,0,0,5.87-1.28,5.69,5.69,0,0,0,2.24-1.2,2.23,2.23,0,0,0,.43-2,3.48,3.48,0,0,0-2.12-2.28C161.19,269.82,160.74,269.75,160.75,269.7Z" style="fill:#263238"></path><path d="M388.15,270.2s-43.2-5.6-58.1-12.05-46.12-27.69-46.12-27.69,39.77-6.64,59,1.82,44.69,34.22,44.69,34.22Z" style="fill:#009DB5"></path><path d="M301.9,234.46a.67.67,0,0,1,.23,0l.68.15,2.6.61,9.56,2.22c4,.93,8.86,2,14.18,3.34,2.66.67,5.44,1.41,8.3,2.3,1.42.45,2.86,1,4.3,1.55s2.78,1.4,4.19,2.12c5.63,2.87,11.12,5.35,16.08,7.69s9.4,4.49,13.08,6.41,6.6,3.57,8.62,4.72L386,267l.59.37a.71.71,0,0,1,.19.14l-.22-.1-.61-.32-2.34-1.28c-2-1.1-5-2.71-8.69-4.57s-8.14-4-13.11-6.31-10.47-4.77-16.12-7.66c-1.4-.72-2.78-1.49-4.16-2.1s-2.83-1.1-4.25-1.54c-2.83-.9-5.61-1.64-8.26-2.32-5.31-1.36-10.11-2.47-14.14-3.45s-7.29-1.78-9.53-2.38c-1.12-.29-2-.54-2.57-.71l-.67-.2Z" style="fill:#263238"></path><path d="M387.63,266.5l.52,3.7s-11.3-1.47-24.33-3.76l-20.89-34.16C362.17,240.73,387.63,266.5,387.63,266.5Z" style="opacity:0.1"></path><path d="M415.51,456.25c.09-80.23-10-139.83-35.53-215.9,0,0,26.91,97.11,31.2,169.82,1.26,21.34.5,24-.29,46.46Z" style="fill:#009DB5"></path><path d="M411.74,393s-51.46-8.1-69.06-16.29-54.22-34.6-54.22-34.6,47.75-6.65,70.47,4.09,52.31,42.36,52.31,42.36Z" style="fill:#009DB5"></path><path d="M309.8,347.45l.28.05.8.2,3.09.83,11.35,3c4.8,1.25,10.52,2.7,16.83,4.47,3.16.88,6.46,1.86,9.84,3q2.55.87,5.09,2c1.69.81,3.28,1.77,4.94,2.67,6.64,3.62,13.12,6.76,19,9.71s11.09,5.67,15.43,8.08,7.78,4.47,10.15,5.91l2.7,1.7.69.46c.16.1.24.16.23.17l-.25-.13-.73-.41-2.75-1.62c-2.4-1.38-5.86-3.4-10.22-5.75s-9.6-5.07-15.47-8-12.36-6.05-19-9.68c-1.66-.91-3.28-1.87-4.91-2.66s-3.35-1.4-5-2c-3.36-1.16-6.66-2.14-9.81-3-6.3-1.8-12-3.28-16.79-4.57s-8.66-2.36-11.32-3.14c-1.33-.38-2.36-.71-3.05-.93l-.79-.25Z" style="fill:#263238"></path><path d="M410.2,392.19s16.64-34.79,26.91-45.63,39.79-33.12,39.79-33.12-7.36,40.13-20.76,54-42.22,26.27-42.22,26.27Z" style="fill:#009DB5"></path><path d="M468.16,328.61a7.22,7.22,0,0,1-.43.75c-.3.48-.73,1.19-1.32,2.08-1.16,1.79-2.91,4.35-5.17,7.43s-5.05,6.68-8.3,10.55c-1.62,1.94-3.36,3.94-5.22,6s-3.86,4-5.75,6.26c-3.77,4.42-7.15,8.83-10.39,12.72s-6.29,7.26-9,9.95-5.08,4.71-6.72,6.07l-2,1.5a6.46,6.46,0,0,1-.7.5,5.26,5.26,0,0,1,.64-.58l1.88-1.58c1.6-1.41,3.93-3.43,6.59-6.17s5.7-6.1,8.9-10,6.58-8.31,10.37-12.75c1.89-2.23,3.91-4.25,5.76-6.27s3.61-4,5.24-5.93c3.26-3.85,6.08-7.41,8.37-10.46s4.08-5.57,5.29-7.32l1.4-2A4.42,4.42,0,0,1,468.16,328.61Z" style="fill:#263238"></path><path d="M398.5,323s18.48-41.67,30-55.45,44.25-39.65,44.25-39.65-6.7,43.62-21.75,61.35-48.86,38-48.86,38Z" style="fill:#009DB5"></path><path d="M463,246a1,1,0,0,1-.14.22l-.43.63-1.73,2.38-6.5,8.66-9.7,12.8c-3.64,4.82-7.61,10.13-11.62,15.84-8.16,11.34-16.21,21.09-22,28.14l-6.94,8.3L402,325.21l-.5.57c-.12.13-.18.19-.19.18a.75.75,0,0,1,.15-.21l.46-.61,1.84-2.3,6.81-8.42c5.74-7.11,13.74-16.88,21.89-28.2,4-5.7,8-11,11.66-15.83s7-9.1,9.79-12.73l6.62-8.56,1.81-2.32.48-.6C463,246.05,463,246,463,246Z" style="fill:#263238"></path><path d="M401.66,331.12s-46.55-4.85-62.72-11.36-50.26-28.49-50.26-28.49,42.52-8.21,63.4.35S401,327.16,401,327.16Z" style="fill:#009DB5"></path><path d="M308.08,295.07a.79.79,0,0,1,.25,0l.73.15,2.81.59L322.19,298c4.36.89,9.57,1.92,15.31,3.21,2.88.64,5.89,1.36,9,2.25q2.32.66,4.66,1.54c1.56.65,3,1.43,4.56,2.17,6.12,2.93,12.09,5.44,17.48,7.81s10.21,4.58,14.21,6.53,7.19,3.65,9.38,4.83l2.5,1.41.65.37.21.15a.89.89,0,0,1-.24-.1l-.67-.33-2.54-1.32c-2.22-1.12-5.42-2.77-9.45-4.67s-8.84-4.1-14.25-6.43-11.37-4.84-17.5-7.79c-1.54-.73-3-1.52-4.53-2.15s-3.07-1.09-4.61-1.53c-3.07-.89-6.07-1.62-8.93-2.27-5.74-1.32-10.93-2.38-15.28-3.32s-7.87-1.71-10.3-2.29c-1.21-.28-2.15-.53-2.78-.69l-.72-.2A.75.75,0,0,1,308.08,295.07Z" style="fill:#263238"></path><path d="M386.88,267.25s11.44-39.58,19.74-53.46,32.71-42.68,32.71-42.68S438.85,209,428,226.9s-38.9,42.88-38.9,42.88Z" style="fill:#009DB5"></path><path d="M432.76,188a.92.92,0,0,1-.07.22l-.25.65c-.24.6-.57,1.42-1,2.46l-3.61,9.05c-1.52,3.83-3.29,8.39-5.4,13.42-1.05,2.51-2.18,5.13-3.47,7.81-.65,1.33-1.35,2.67-2.14,4s-1.73,2.56-2.6,3.87c-3.51,5.19-6.65,10.29-9.57,14.88s-5.61,8.7-7.94,12.09-4.3,6.08-5.67,7.93l-1.62,2.11L389,267a1.22,1.22,0,0,1-.16.18A1.58,1.58,0,0,1,389,267l.39-.57,1.53-2.16c1.32-1.88,3.25-4.6,5.53-8s5-7.52,7.84-12.13,6-9.71,9.55-14.93c.87-1.3,1.8-2.56,2.59-3.84s1.47-2.63,2.12-4c1.29-2.65,2.43-5.27,3.49-7.77,2.13-5,3.94-9.56,5.5-13.37s2.84-6.88,3.76-9c.45-1.06.83-1.87,1.08-2.42l.29-.63C432.71,188,432.75,188,432.76,188Z" style="fill:#263238"></path><path d="M384.61,257.87s-26.05-35.17-30.51-50.78S342.93,143,342.93,143s36.08,37.06,41.73,57.3.79,57.4.79,57.4Z" style="fill:#009DB5"></path><path d="M357,170a.88.88,0,0,1,.12.21c.09.16.19.37.32.61q.42.89,1.17,2.4l4.34,8.81c1.84,3.71,4.06,8.12,6.4,13.08,1.17,2.48,2.36,5.1,3.47,7.88.57,1.38,1.08,2.82,1.53,4.3s.69,3,1,4.59c1.34,6.18,2.91,12,4.25,17.31s2.48,10.13,3.32,14.19,1.43,7.36,1.81,9.65c.17,1.11.3,2,.4,2.64l.09.69a1.09,1.09,0,0,1,0,.24,1,1,0,0,1-.07-.23c0-.19-.08-.41-.14-.68-.12-.65-.28-1.52-.49-2.63-.44-2.27-1.06-5.56-2-9.61s-2.05-8.84-3.43-14.14-2.94-11.13-4.29-17.32c-.33-1.54-.61-3.1-1-4.55s-.95-2.89-1.51-4.26c-1.1-2.77-2.28-5.39-3.44-7.87-2.31-5-4.5-9.39-6.29-13.12s-3.24-6.77-4.2-8.88c-.48-1-.84-1.88-1.08-2.44l-.27-.64C357,170,357,170,357,170Z" style="fill:#263238"></path><path d="M371,360.75a8,8,0,0,1,9,5.15,1.81,1.81,0,0,1-1,2.31c-2.43,1-6.87-.24-9.51-1.35a4,4,0,0,1-1.68-1.11,2.83,2.83,0,0,1,.15-3.33A4.94,4.94,0,0,1,371,360.75Z" style="fill:#fafafa"></path><path d="M411.24,388.54l.5,4.44s-18.06-2.84-36.45-6.86l-16.36-39.94C381.64,356.92,411.24,388.54,411.24,388.54Z" style="opacity:0.1"></path><path d="M401,327.16l.67,4s-19.53-2.44-33.19-4.47l-16.39-35C373,300.19,401,327.16,401,327.16Z" style="opacity:0.1"></path><path d="M351.34,236.31a11.3,11.3,0,0,1,10.35-.68c6.11,2.39,10.9,9.07,10.47,11.39-.76,3-3.93,3.71-8.31,2.66s-8.41-3.17-12.39-5.28a7.08,7.08,0,0,1-3.39-2.86C347.05,239.38,349.28,237.53,351.34,236.31Z" style="fill:#e0e0e0"></path><path d="M351.34,236.31c0,.05-.75.45-1.9,1.47a4.37,4.37,0,0,0-1.44,2.28,3.32,3.32,0,0,0,1.6,3,35.54,35.54,0,0,0,3.95,2.19c1.45.75,3,1.52,4.69,2.25a34.74,34.74,0,0,0,5.41,1.86,16.19,16.19,0,0,0,3,.49,7.59,7.59,0,0,0,3-.33,3.47,3.47,0,0,0,2.08-1.94,3.28,3.28,0,0,0,.22-.67,2.18,2.18,0,0,0,0-.67,5.67,5.67,0,0,0-.46-1.37,17.63,17.63,0,0,0-3.33-4.58,18.26,18.26,0,0,0-8.11-5,11.05,11.05,0,0,0-6.41.12c-1.47.48-2.19,1-2.22.92a2.32,2.32,0,0,1,.52-.35,9.52,9.52,0,0,1,1.63-.76,10.92,10.92,0,0,1,6.57-.28,18.26,18.26,0,0,1,8.36,5,17.49,17.49,0,0,1,3.45,4.7,6.38,6.38,0,0,1,.51,1.49c0,.13.05.26.06.41l0,.44a4.27,4.27,0,0,1-.25.79,4,4,0,0,1-2.38,2.21,7.89,7.89,0,0,1-3.21.37,17.82,17.82,0,0,1-3.05-.51,34.6,34.6,0,0,1-5.48-1.92c-1.69-.75-3.25-1.54-4.7-2.3a33.47,33.47,0,0,1-4-2.29,4.89,4.89,0,0,1-1.35-1.53,2.8,2.8,0,0,1-.32-1.81,4.48,4.48,0,0,1,1.6-2.38,10.51,10.51,0,0,1,1.47-1A2.47,2.47,0,0,1,351.34,236.31Z" style="fill:#263238"></path><path d="M358.24,237l-.18-.11a8.43,8.43,0,0,0-7.68,2.08,1.51,1.51,0,0,0-.3.36,1,1,0,0,0,.1,1.06,1.75,1.75,0,0,0,.9.63,2.76,2.76,0,0,0,1.68.05c1-.3,1.82-1.15,2.86-1.38a15.56,15.56,0,0,1,1.81-.1,1.39,1.39,0,0,0,.81-2.59Z" style="fill:#fff"></path></g></svg>